<svg id="Calque_1" data-name="Calque 1" xmlns="http://www.w3.org/2000/svg" xmlns:xlink="http://www.w3.org/1999/xlink" viewBox="0 0 1636.12 711.2"><defs><style>.cls-1{fill:url(#Dégradé_sans_nom_41);}.cls-2{fill:#eae5d3;}</style><linearGradient id="Dégradé_sans_nom_41" x1="842.39" y1="769.6" x2="802.45" y2="-64.56" gradientUnits="userSpaceOnUse"><stop offset="0" stop-color="#1b2945"/><stop offset="0.54" stop-color="#3b4a5d"/><stop offset="0.62" stop-color="#3f4d5f"/><stop offset="0.69" stop-color="#495767"/><stop offset="0.76" stop-color="#5b6773"/><stop offset="0.82" stop-color="#757d84"/><stop offset="0.88" stop-color="#969a9a"/><stop offset="0.94" stop-color="#bdbeb5"/><stop offset="1" stop-color="#eae5d3"/></linearGradient></defs><title>Paysage</title><polygon class="cls-1" points="1244.89 698.13 1189.86 674.11 1037.42 658.66 235.88 462.11 92.75 429.08 1.56 377.4 63.48 306.34 196.41 235.38 323.41 30.37 380 1.07 442.67 18.25 488.79 70.39 580.44 137.14 730.25 137.14 911.17 188.11 1086.85 156.99 1092.83 179.92 1183.09 157.11 1222.05 165.1 1244.95 157.14 1635.12 157.14 1635.12 710.17 1244.89 698.13"/><path class="cls-2" d="M392,19l62,17,46,52,92,67H742l181,51,175-31,6,23,91-23,39,8,23-8h389V726l-389-12-55-24-152.52-15.47L248,478,105,445,15,394l61-70,133-71L336,48l56-29m-.23-2.14-.69.36-56,29-.49.26-.29.47L207.58,251.49,75.06,322.24l-.33.17-.24.28-61,70-1.61,1.84L14,395.74l90,51,.26.14.28.07,143,33L1049,676.48l.14,0h.14L1201.49,692l54.71,23.87.35.16h.39l389,12,2.06.06V173H1256.66l-.32.11-22.48,7.82L1195.4,173,1195,173l-.44.11-89.08,22.51-5.49-21.07-.47-1.79-1.82.32L923.1,204,742.54,153.08l-.26-.08H592.65l-91.3-66.49L455.5,34.67l-.4-.44-.57-.16-62-17-.76-.21Z" transform="translate(-11.88 -16.86)"/></svg>