<svg id="Calque_1" data-name="Calque 1" xmlns="http://www.w3.org/2000/svg" xmlns:xlink="http://www.w3.org/1999/xlink" viewBox="0 0 1338.05 479.02"><defs><style>.cls-1{fill:url(#Dégradé_sans_nom_5);}.cls-2{fill:#eae5d3;}.cls-3{fill:url(#Dégradé_sans_nom_24);}.cls-4{fill:none;stroke:#eae5d3;stroke-miterlimit:10;stroke-width:2px;}</style><linearGradient id="Dégradé_sans_nom_5" x1="670.46" y1="278.93" x2="647.59" y2="-860.71" gradientUnits="userSpaceOnUse"><stop offset="0" stop-color="#3b4a5d"/><stop offset="1" stop-color="#eae5d3"/></linearGradient><linearGradient id="Dégradé_sans_nom_24" x1="651.99" y1="258.94" x2="1345.52" y2="258.94" gradientUnits="userSpaceOnUse"><stop offset="0" stop-color="#000c2a"/><stop offset="1" stop-color="#3b4a5d"/></linearGradient></defs><title>Rocher2</title><path class="cls-1" d="M9.5,485.5V76.64L184.57,50.48l52,15,47.1-4L329.55,85.4,441.4,39.66,612.91,24.07,752.51,8.49l.13,0c2.28.32,230.6,32.13,436.05,32.13,52.33,0,99.34-2.06,139.71-6.14l2.26-.22-1.36,1.82c-37.64,50.52-63.93,71-64.19,71.19l-.21.16-61.46,9.07-78.93-22-118.9,35.38,35.67,28.73L798.17,295.27,654,485.5Z" transform="translate(-8.5 -7.48)"/><path class="cls-2" d="M752.5,9.5s228.28,32.14,436.19,32.14c48.81,0,96.46-1.77,139.81-6.14-38,51-64,71-64,71l-61,9-79-22-121,36,36,29-242,136-144,190H10.5V77.5l174-26,52,15,47-4,46,24L441.64,40.64,613,25.07,752.5,9.5m0-2-.25,0L612.78,23.08,441.46,38.65l-.3,0-.28.12L329.6,84.3,284.43,60.73l-.52-.27-.58,0-46.63,4-51.65-14.9-.41-.12-.44.06-174,26-1.7.26V486.5h646l.6-.79L798.84,296l241.64-135.8,2.58-1.44-2.31-1.86-33-26.61,116.8-34.75L1203,117.43l.41.11.42-.06,61-9,.52-.08.41-.31c.26-.21,26.66-20.76,64.38-71.39l2.72-3.65-4.52.46c-40.34,4.07-87.31,6.13-139.61,6.13-205.38,0-433.63-31.8-435.91-32.12l-.25,0Z" transform="translate(-8.5 -7.48)"/><path class="cls-3" d="M652,485.5,796.83,293.73l240.89-135.38-36.33-29.27,123.1-36.62,79.07,22,60.47-8.92c3.72-3.74,50.34-50.67,63.64-70.61l1.71-2.58,7.12,189,9,57.16-16,55.08V485.5Z" transform="translate(-8.5 -7.48)"/><path class="cls-2" d="M1328.5,35.5l7,186,9,57-16,55v151H654l143.5-190,242-136-36-29,121-36,79,22,61-9s50-50,64-71m1.77-6.25-3.43,5.14c-13,19.52-58.19,65.1-63.29,70.23l-59.92,8.84L1125,91.57l-.56-.15-.55.16-121,36-3.65,1.09,3,2.39,33.69,27.14L796.52,292.76l-.36.2-.26.33-143.5,190L650,486.5H1330.5V333.78l15.92-54.72.13-.43-.07-.44-9-56.88-7-185.89-.23-6.17Z" transform="translate(-8.5 -7.48)"/><polyline class="cls-4" points="1031 151.02 962 309.92 961.5 377.32"/><polyline class="cls-4" points="1195 108.02 1221.56 148.56 1213.39 207.02 1221.56 264.17"/><line class="cls-4" x1="1256" y1="99.02" x2="1247.1" y2="186.09"/><polyline class="cls-4" points="1320 326.02 1287.95 429.41 1287.95 476.52"/><polyline class="cls-4" points="744 2.02 830.93 33.15 892.71 33.15"/><polyline class="cls-4" points="995 122.02 961.5 103.62 909.05 103.62"/><polyline class="cls-4" points="1116 86.02 1178.67 90.34 1229.73 76.05"/><polyline class="cls-4" points="433.14 33.15 359.61 83.2 341.54 112.82"/><polyline class="cls-4" points="789 287.02 710.41 254.77 586.33 267.52 486.75 326.02"/></svg>