<svg id="Calque_1" data-name="Calque 1" xmlns="http://www.w3.org/2000/svg" xmlns:xlink="http://www.w3.org/1999/xlink" viewBox="0 0 362.11 437.5"><defs><style>.cls-1{fill:url(#Dégradé_sans_nom_20);}.cls-2{fill:#eae5d3;}.cls-3{fill:url(#Dégradé_sans_nom_24);}</style><linearGradient id="Dégradé_sans_nom_20" x1="-1" y1="106" x2="359.11" y2="106" gradientUnits="userSpaceOnUse"><stop offset="1" stop-color="#3b4a5d"/><stop offset="1" stop-color="#eae5d3"/></linearGradient><linearGradient id="Dégradé_sans_nom_24" x1="-1" y1="281.52" x2="359.11" y2="281.52" gradientUnits="userSpaceOnUse"><stop offset="0" stop-color="#000c2a"/><stop offset="1" stop-color="#3b4a5d"/></linearGradient></defs><title>Rocher1</title><path class="cls-1" d="M0,197.5a1,1,0,0,1-.63-.23A1,1,0,0,1-1,196.5l.5-155a1,1,0,0,1,.85-1l174-26h.15a.9.9,0,0,1,.28,0l51.82,15,46.82-4h.08a1,1,0,0,1,.46.11l46,24a1,1,0,0,1,.39.37L359,113.52a1,1,0,0,1-.32,1.36L290,158.42a1.06,1.06,0,0,1-.54.16,1.21,1.21,0,0,1-.37-.07l-109-43.34L89.06,179.32a1,1,0,0,1-.37.16L.2,197.48Z" transform="translate(2 -13.5)"/><path class="cls-2" d="M174.5,15.5l52,15,47-4,46,24L358.11,114,289.5,157.58,180,114,88.49,178.5,0,196.5l.5-155,174-26m0-2-.3,0-174,26a2,2,0,0,0-1.7,2l-.5,155a2,2,0,0,0,.73,1.56A2,2,0,0,0,0,198.5a1.81,1.81,0,0,0,.4,0l88.49-18a2.18,2.18,0,0,0,.75-.32l90.63-63.84,108.49,43.14a2.11,2.11,0,0,0,.74.14,2,2,0,0,0,1.07-.31l68.61-43.54a2,2,0,0,0,.64-2.73L321.21,49.46a2,2,0,0,0-.78-.73l-46-24a2,2,0,0,0-.93-.23h-.17l-46.63,4-51.65-14.9a2,2,0,0,0-.55-.08Z" transform="translate(2 -13.5)"/><path class="cls-3" d="M.5,449.5a1,1,0,0,1-1-1l-.5-252a1,1,0,0,1,.8-1l88.28-18,91.34-64.34A1,1,0,0,1,180,113a1,1,0,0,1,.37.07l109,43.35,68.17-43.27a1,1,0,0,1,.54-.15,1,1,0,0,1,.63.23,1,1,0,0,1,.3,1.13L316.21,224.19V289L353,448.78a1,1,0,0,1-.19.84,1,1,0,0,1-.78.38Z" transform="translate(2 -13.5)"/><path class="cls-2" d="M358.11,114l-42.9,110v65.06L352,449,.5,448.5,0,196.5l88.49-18L180,114l109.5,43.54L358.11,114M180,112a2,2,0,0,0-1.15.36L87.68,176.62-.4,194.54a2,2,0,0,0-1.6,2l.5,252a2,2,0,0,0,2,2L352,451h0a2,2,0,0,0,1.56-.75,2,2,0,0,0,.39-1.7L317.21,288.84V224.38L360,114.77a2,2,0,0,0-2.94-2.42l-67.74,43L180.74,112.18A2.11,2.11,0,0,0,180,112Z" transform="translate(2 -13.5)"/></svg>